<svg class="svg-icon" style="width: 1em;height: 1em;vertical-align: middle;fill: currentColor;overflow: hidden;" viewBox="0 0 1024 1024" version="1.1" xmlns="http://www.w3.org/2000/svg"><path d="M452.838761 88.57497c-45.587573 14.898479-86.403348 40.473755-119.453618 73.802173H30.905433c-17.06804 0-30.905433 13.837392-30.905433 30.905432s13.837392 30.905433 30.905433 30.905433h164.828973c17.06804 0 30.905433 13.837392 30.905433 30.905433s-13.837392 30.905433-30.905433 30.905432H92.716298c-17.06804 0-30.905433 13.837392-30.905433 30.905433s13.837392 30.905433 30.905433 30.905432h41.207243c17.06804 0 30.905433 13.837392 30.905433 30.905433s-13.837392 30.905433-30.905433 30.905433H51.509054c-17.06804 0-30.905433 13.837392-30.905432 30.905432s13.837392 30.905433 30.905432 30.905433h54.218431A149.168161 149.168161 0 0 0 96.837022 522.305932c0 82.564893 66.930865 149.495759 149.493698 149.495758h357.536709z" fill="#D4D4D5" /><path d="M1024 472.476072c0-110.517827-89.349666-197.91633-196.336032-199.333859v-0.014422C786.609191 157.018141 675.891509 73.822777 545.721948 73.822777a298.536177 298.536177 0 0 0-92.885248 14.750132c-46.384934 64.367775-73.728 143.372362-73.728 228.772314 0 156.624612 91.925119 291.759646 224.756668 354.454407h220.806954c110.087211 0 199.327678-89.240467 199.327678-199.323558z" fill="#EFEDEE" /><path d="M508.765231 611.021006c-10.975549-13.509795-28.647276-22.738157-44.013456-21.629682-33.526213 2.048-40.653006 20.498543-52.782359 45.657626-13.592209 26.904209-37.195718 48.859429-66.205617 59.550648-18.860555 7.05674-39.598101 9.001722-59.014954 5.556796-27.229746-4.679082-50.9713-18.535018-71.618189-44.9468-13.445924-18.817288-36.575549-23.83633-34.515187-23.189377a17.327646 17.327646 0 0 1-11.338173-21.722398c1.961465-6.247018 7.159759-10.598503 13.155412-11.803815 23.172893-4.602849 49.135517 0.265787 72.061167 17.061859 13.161594 9.856773 27.631517 13.390294 39.484781 12.300362 35.636024-3.484072 39.746447-37.799404 45.126052-49.178784 8.272354-19.830986 21.081626-34.976708 34.98289-47.829248 39.678455-34.309151 87.942439-37.238986 112.328885-31.933553 62.818382 10.880773 107.254213 64.816934 112.302101 120.172684 3.64066 68.863485-38.51641 114.100797-83.73724 127.631195-16.456113 5.002559-33.73431 5.946205-49.578495 2.661988a17.379155 17.379155 0 0 1-13.489191-20.545932 17.379155 17.379155 0 0 1 12.086084-13.140989c56.964893-16.905272 70.967115-72.638068 44.765489-104.67258zM100.943324 840.258962c93.464209-6.479839 125.162881-37.284314 172.341054-35.730801 58.108394 2.408563 85.154769 39.791775 94.008145 49.446632 56.344724 61.289594 144.623002 75.087839 215.225433 39.793835 36.583791-18.291895 47.528435-36.29534 60.722994-45.099268 29.395187-20.568596 81.378125-0.644893 89.506253 49.751566 1.234157 11.552451 0.035026 19.907219-1.209432 26.446808-1.70598 8.979058-0.675799 18.940909 7.557408 23.461344 8.381553 4.602849 17.140153 0.294632 24.751131-9.469424 4.281433-5.492926 8.165215-11.983066 11.430889-18.019928 39.02326-81.423453-34.356539-165.840612-115.763509-166.771895-54.309087-0.622229-83.119131 33.511791-98.681046 46.782583-36.876362 31.527662-99.808064 38.293891-146.502052 3.267735-16.431388-11.585416-65.107445-56.979316-150.435284-45.843058-53.641529 8.245569-81.209175 36.208805-145.117489 47.524313-6.811557 1.205312-13.664322 2.122173-20.543871 2.78355a15.885392 15.885392 0 0 0-14.371026 15.813279c-0.00206 9.244845 7.856161 16.501441 17.080402 15.862729zM664.872692 663.60969c23.869296-35.984225 71.912821-45.647324 116.668008-13.810608 21.549328 15.184869 55.796668 24.271066 80.133666 13.454165 27.699509-13.520097 29.104676-35.207469 17.358552-47.421295-16.787831-17.453328-43.319115-4.289674-41.254632-5.052008a18.37431 18.37431 0 0 1-23.593208-10.889014c-9.829988-26.68169 54.471855-72.083831 110.262343-34.816 62.75039 40.821956 51.187638 140.613537-31.706914 174.053215-65.3073 25.546431-130.385899-10.258543-154.121272-38.199115-7.701634-9.345803-18.013746-17.611976-30.005054-17.115428-9.691944 0.236942-22.367292 7.398761-20.306929 6.378881-16.765167 8.30738-33.713706-11.004394-23.43456-26.582793z" fill="#B9F0FF" /><path d="M414.639646 410.22635a60.1873 47.930205 0 1 0 120.374599 0 60.1873 47.930205 0 1 0-120.374599 0Z" fill="#FF8E9E" /><path d="M859.898334 412.832708a60.1873 47.930205 0 1 0-120.3746 0 60.1873 47.930205 0 1 0 120.3746 0Z" fill="#FF8E9E" /><path d="M503.758551 324.630664a15.452716 15.452716 0 0 0-15.452716 15.452716v20.603622a15.452716 15.452716 0 0 0 30.905433 0v-20.603622a15.452716 15.452716 0 0 0-15.452717-15.452716zM767.484909 324.630664a15.452716 15.452716 0 0 0-15.452716 15.452716v20.603622a15.452716 15.452716 0 0 0 30.905433 0v-20.603622a15.452716 15.452716 0 0 0-15.452717-15.452716zM676.282978 352.925618a15.446535 15.446535 0 0 0-20.605682 7.275139c-3.432563 7.178302-10.901376 11.816177-19.025385 11.816177s-15.592821-4.637875-19.025384-11.816177a15.452716 15.452716 0 0 0-27.880821 13.330543c8.538141 17.855099 26.949537 29.391066 46.906205 29.391066s38.370125-11.535968 46.906206-29.391066a15.452716 15.452716 0 0 0-7.275139-20.605682z" fill="#313D40" /></svg>