<svg class="svg-icon" style="width: 1em;height: 1em;vertical-align: middle;fill: currentColor;overflow: hidden;" viewBox="0 0 1024 1024" version="1.1" xmlns="http://www.w3.org/2000/svg"><path d="M514.368 402.304c61.312 0 115.392 34.752 148.48 78.976a90.88 90.88 0 0 1 33.984-7.104c29.44 0 55.616 14.4 74.624 37.184h248.768c0-58.688-44.928-106.304-100.48-106.304-0.704 0-1.408 0.192-2.176 0.192-12.544-83.84-80.96-148.16-163.776-148.16-58.688 0-110.08 32.448-139.648 81.088a162.112 162.112 0 0 0-26.304-2.432c-46.848 0-89.024 15.104-119.04 48.256 5.952 6.592 11.776 13.376 16.704 20.8a187.52 187.52 0 0 1 28.864-2.496zM736.384 602.24c-19.072-25.216-45.376-41.216-75.008-41.216-12.032 0-23.36 3.136-34.112 7.872-33.28-48.96-87.616-80.896-149.248-80.896-9.92 0-19.52 1.024-28.992 2.624a177.6 177.6 0 0 0-16.896-23.04c-33.6-40.192-76.352-80.448-131.264-80.448-91.52 0-173.376 85.12-187.2 177.152-0.832-0.064-1.536-0.256-2.432-0.256-61.312 0-110.976 72.96-110.976 137.28h766.016c-3.008-30.464-14.016-78.272-29.888-99.072z" fill="#434343" /></svg>