<svg class="svg-icon" style="width: 1em; height: 1em;vertical-align: middle;fill: currentColor;overflow: hidden;" viewBox="0 0 1024 1024" version="1.1" xmlns="http://www.w3.org/2000/svg"><path d="M716.8 375.466667m-17.066667 0a17.066667 17.066667 0 1 0 34.133334 0 17.066667 17.066667 0 1 0-34.133334 0Z" fill="" /><path d="M512 17.066667C238.933333 17.066667 17.066667 238.933333 17.066667 512S238.933333 1006.933333 512 1006.933333 1006.933333 785.066667 1006.933333 512 785.066667 17.066667 512 17.066667z m-40.96 682.666666h47.786667c44.373333 0 78.506667-34.133333 78.506666-78.506666 0-10.24 6.826667-17.066667 17.066667-17.066667s17.066667 6.826667 17.066667 17.066667c0 61.44-51.2 112.64-112.64 112.64h-47.786667c-61.44 0-112.64-51.2-112.64-112.64v-187.733334c0-61.44 51.2-112.64 112.64-112.64h47.786667c61.44 0 112.64 51.2 112.64 112.64 0 10.24-6.826667 17.066667-17.066667 17.066667s-17.066667-6.826667-17.066667-17.066667c0-40.96-34.133333-78.506667-78.506666-78.506666h-47.786667c-44.373333 0-78.506667 34.133333-78.506667 78.506666v187.733334c0 44.373333 34.133333 78.506667 78.506667 78.506666z m245.76-273.066666c-27.306667 0-51.2-23.893333-51.2-51.2s23.893333-51.2 51.2-51.2 51.2 23.893333 51.2 51.2-23.893333 51.2-51.2 51.2z" fill="" /></svg>