<svg class="svg-icon" style="width: 1em; height: 1em;vertical-align: middle;fill: currentColor;overflow: hidden;" viewBox="0 0 1024 1024" version="1.1" xmlns="http://www.w3.org/2000/svg"><path d="M512 1006.933333C238.933333 1006.933333 17.066667 785.066667 17.066667 512S238.933333 17.066667 512 17.066667 1006.933333 238.933333 1006.933333 512 785.066667 1006.933333 512 1006.933333z m0-955.733333C259.413333 51.2 51.2 259.413333 51.2 512S259.413333 972.8 512 972.8 972.8 764.586667 972.8 512 764.586667 51.2 512 51.2z" fill="" /><path d="M518.826667 733.866667h-47.786667c-61.44 0-112.64-51.2-112.64-112.64v-187.733334c0-61.44 51.2-112.64 112.64-112.64h47.786667c61.44 0 112.64 51.2 112.64 112.64 0 10.24-6.826667 17.066667-17.066667 17.066667s-17.066667-6.826667-17.066667-17.066667c0-40.96-34.133333-78.506667-78.506666-78.506666h-47.786667c-44.373333 0-78.506667 34.133333-78.506667 78.506666v187.733334c0 40.96 34.133333 78.506667 78.506667 78.506666h47.786667c44.373333 0 78.506667-34.133333 78.506666-78.506666 0-10.24 6.826667-17.066667 17.066667-17.066667s17.066667 6.826667 17.066667 17.066667c0 61.44-51.2 112.64-112.64 112.64zM716.8 426.666667c-27.306667 0-51.2-23.893333-51.2-51.2s23.893333-51.2 51.2-51.2 51.2 23.893333 51.2 51.2-23.893333 51.2-51.2 51.2z m0-68.266667c-10.24 0-17.066667 6.826667-17.066667 17.066667s6.826667 17.066667 17.066667 17.066666 17.066667-6.826667 17.066667-17.066666-6.826667-17.066667-17.066667-17.066667z" fill="" /></svg>