<svg class="svg-icon" style="width: 1em; height: 1em;vertical-align: middle;fill: currentColor;overflow: hidden;" viewBox="0 0 1024 1024" version="1.1" xmlns="http://www.w3.org/2000/svg"><path d="M697.6 889.6h-467.2c-121.6 0-224-102.4-224-224 0-83.2 44.8-153.6 115.2-198.4-6.4-19.2-6.4-38.4-6.4-64 0-76.8 32-153.6 89.6-211.2s128-89.6 211.2-89.6c64 0 121.6 19.2 172.8 51.2 44.8 32 76.8 70.4 96 121.6 57.6 0 115.2 19.2 160 57.6 38.4 32 64 76.8 70.4 128 32 19.2 57.6 44.8 76.8 70.4 25.6 38.4 32 76.8 32 121.6 0 256-224 236.8-224 236.8h-102.4m-288-723.2c-134.4 0-243.2 108.8-243.2 243.2 0 25.6 0 44.8 6.4 70.4 6.4 12.8 0 25.6-12.8 32-64 25.6-102.4 89.6-102.4 160 0 96 76.8 172.8 172.8 172.8h569.6c96 0 172.8-76.8 172.8-172.8 0-64-38.4-128-96-153.6-6.4-6.4-12.8-12.8-12.8-19.2-6.4-89.6-83.2-153.6-172.8-153.6h-25.6c-12.8 0-25.6-6.4-25.6-19.2-38.4-96-128-160-230.4-160z"  /></svg>