<svg class="svg-icon" style="width: 1.046875em;height: 1em;vertical-align: middle;fill: currentColor;overflow: hidden;" viewBox="0 0 1072 1024" version="1.1" xmlns="http://www.w3.org/2000/svg"><path d="M1025.226218 672.040874c0-45.744403-28.469782-86.56242-73.078319-113.466084 0.305479-4.272403 0.512-8.566319 0.512-12.920471 0-94.474756-72.605042-171.055328-162.162017-171.055327-8.867496 0-17.567193 0.783059-26.043159 2.224403C718.280067 265.26763 612.82958 187.271529 490.05284 187.271529c-152.649143 0-278.519395 120.560941-296.929882 276.312202C102.090218 486.619429 51.630252 555.57163 51.630252 637.057076c0 93.27005 66.155563 170.087261 183.575664 180.452033 3.231193 1.226218 6.664605 2.01358 10.304538 2.01358h604.129882c4.823126 0 9.319261-1.282151 13.389446-3.377479 92.349311-12.86884 162.196437-72.475966 162.196436-144.104336z" fill="#C2F2FF" /><path d="M351.19758 502.474218a32.268908 32.268908 0 0 1-32.268908-32.268907c0-87.939227 77.066756-159.485849 171.795362-159.485849a32.268908 32.268908 0 0 1 0 64.537815c-59.142454 0-107.257546 42.590655-107.257547 94.948034a32.268908 32.268908 0 0 1-32.268907 32.268907z" fill="#6E6E96" /><path d="M955.228504 775.301378c0-45.744403-23.780034-86.56242-61.044168-113.466084 0.258151-4.272403 0.430252-8.566319 0.430252-12.92047 0-94.474756-60.648336-171.055328-135.451966-171.055328-7.408941 0-14.671597 0.783059-21.753546 2.224403-38.567798-111.555765-126.653311-189.551866-229.208202-189.551865-127.50521 0-232.645916 120.560941-248.023126 276.312201C184.130689 589.884235 141.983193 658.832134 141.983193 740.31758c0 93.27005 55.26158 170.087261 153.341849 180.452033 2.701983 1.226218 5.567462 2.01358 8.605042 2.01358h504.625479c4.035765 0 7.787563-1.282151 11.190857-3.377479 77.135597-12.86884 135.482084-72.475966 135.482084-144.104336z" fill="#7FE4FF" /><path d="M849.640336 851.791597H245.510454c-5.640605 0-11.328538-0.838992-16.960538-2.499765C103.251899 836.689748 19.361345 751.809613 19.361345 637.057076c0-93.351798 54.930286-167.733782 144.865882-198.53553 29.09795-163.065546 165.707294-283.518924 325.825613-283.518924 124.334252 0 237.408807 72.815866 294.206387 187.435025 108.707496-3.713076 198.509714 86.743126 200.630857 199.137882 46.381176 33.615597 72.605042 80.319462 72.605042 130.465345 0 85.448067-77.660504 158.621042-185.348302 175.379361a60.321345 60.321345 0 0 1-22.506488 4.371362z m-603.217748-64.537815h602.232471a32.578689 32.578689 0 0 1 9.921613-3.067698c77.867025-10.850958 134.380639-58.015193 134.380639-112.14521 0-32.522756-20.948975-63.806387-57.473076-85.830992a32.260303 32.260303 0 0 1-15.519193-29.945546c0.288269-4.083092 0.430252-7.456269 0.430252-10.610017 0-76.528941-58.269042-138.78642-129.893109-138.78642a123.052101 123.052101 0 0 0-20.626286 1.768336 32.281815 32.281815 0 0 1-35.229042-19.468907c-42.650891-103.041076-138.657345-169.622588-244.585412-169.622589-134.307496 0-248.186622 106.543328-264.884706 247.829513a32.277513 32.277513 0 0 1-24.128537 27.497412C127.690218 513.428437 83.89916 566.586084 83.89916 637.057076c0 81.829647 60.506353 140.042756 154.14642 148.312201 2.865479 0.249546 5.679328 0.886319 8.377008 1.884505z" fill="#6E6E96" /></svg>