<svg class="svg-icon" style="width: 1em; height: 1em;vertical-align: middle;fill: currentColor;overflow: hidden;" viewBox="0 0 1024 1024" version="1.1" xmlns="http://www.w3.org/2000/svg"><path d="M716.8 375.466667m-17.066667 0a17.066667 17.066667 0 1 0 34.133334 0 17.066667 17.066667 0 1 0-34.133334 0Z" fill="" /><path d="M512 17.066667C238.933333 17.066667 17.066667 238.933333 17.066667 512S238.933333 1006.933333 512 1006.933333 1006.933333 785.066667 1006.933333 512 785.066667 17.066667 512 17.066667z m68.266667 341.333333h-187.733334v136.533333H546.133333c10.24 0 17.066667 6.826667 17.066667 17.066667s-6.826667 17.066667-17.066667 17.066667h-153.6V682.666667c0 10.24-6.826667 17.066667-17.066666 17.066666s-17.066667-6.826667-17.066667-17.066666V341.333333c0-10.24 6.826667-17.066667 17.066667-17.066666h204.8c10.24 0 17.066667 6.826667 17.066666 17.066666s-6.826667 17.066667-17.066666 17.066667z m136.533333 68.266667c-27.306667 0-51.2-23.893333-51.2-51.2s23.893333-51.2 51.2-51.2 51.2 23.893333 51.2 51.2-23.893333 51.2-51.2 51.2z" fill="" /></svg>