<svg class="svg-icon" style="width: 1em; height: 1em;vertical-align: middle;fill: currentColor;overflow: hidden;" viewBox="0 0 1024 1024" version="1.1" xmlns="http://www.w3.org/2000/svg"><path d="M627.5 479.1h0.9c22-11.7 46.7-17.8 71.7-17.8 29.3 0 56.8 8.3 80.1 22.7 2.1-9.5 3.2-19.3 3.2-29.4 0-76.1-61.7-137.7-137.7-137.7-35.6 0-68 13.5-92.4 35.7 43.2 25.9 72.6 72.8 74.2 126.5z" fill="#F9D43A" /><path d="M778.2 491.8c-4.2-2.7-8.6-5.2-13.1-7.5-1.4-0.7-2.9-1.4-4.3-2.1-0.2-0.1-0.5-0.2-0.7-0.3-4.1-1.9-8.3-3.5-12.6-5-0.7-0.2-1.4-0.5-2.1-0.7-1.1-0.4-2.3-0.7-3.4-1.1-1-0.3-2.1-0.6-3.2-0.9-1.5-0.4-3-0.8-4.4-1.2-1.2-0.3-2.5-0.6-3.8-0.9-0.9-0.2-1.8-0.4-2.6-0.5-1.4-0.3-2.8-0.5-4.2-0.7l-2.1-0.3c-2-0.3-4.1-0.6-6.2-0.8-0.6-0.1-1.2-0.1-1.8-0.2-1.7-0.2-3.3-0.3-5-0.4-0.6 0-1.3-0.1-1.9-0.1-2.2-0.1-4.4-0.2-6.7-0.2-25.3 0-49 6.5-69.7 17.8h-10.6c0-1.1 0.1-2.2 0.1-3.3 0-2.2-0.1-4.4-0.2-6.6 0-0.6-0.1-1.1-0.1-1.7-0.1-2.1-0.3-4.3-0.5-6.4v-0.2c-0.2-2.1-0.5-4.3-0.8-6.4-0.1-0.6-0.2-1.1-0.3-1.7-0.3-1.9-0.7-3.9-1-5.8 0-0.2-0.1-0.4-0.1-0.6-0.4-2-0.9-4-1.4-6-0.2-0.6-0.3-1.3-0.5-1.9-0.5-1.7-0.9-3.4-1.4-5.1-0.1-0.5-0.3-0.9-0.4-1.4-0.6-1.8-1.2-3.5-1.8-5.2-0.3-0.7-0.5-1.4-0.8-2.1-0.5-1.4-1.1-2.8-1.7-4.2-0.3-0.8-0.7-1.6-1-2.4-0.6-1.4-1.3-2.8-1.9-4.2l-1.2-2.4c-0.5-1.1-1.1-2.2-1.7-3.2-0.6-1.2-1.3-2.4-1.9-3.5-0.6-1-1.2-2-1.8-3.1-0.5-0.9-1.1-1.8-1.6-2.7-0.5-0.8-1-1.5-1.5-2.3-1-1.6-2.1-3.2-3.2-4.7-0.4-0.6-0.8-1.2-1.3-1.8-0.7-1-1.5-2-2.2-2.9-0.4-0.5-0.7-1-1.1-1.4-1.5-1.9-3.1-3.8-4.7-5.7-0.2-0.2-0.4-0.4-0.5-0.6-0.9-1-1.9-2.1-2.8-3.1l-0.7-0.7c-3-3.2-6.2-6.2-9.5-9.1l-0.3-0.3c-3.4-3-7-5.8-10.7-8.5-3.8-2.7-7.7-5.3-11.7-7.6-21.4-12.4-46.3-19.6-72.8-19.6-75.4 0-137.4 57.6-144.4 131.2-4.4-0.4-8.8-0.6-13.3-0.6-80.1 0-145.1 65-145.1 145.1 0 68.6 47.6 126.1 111.7 141.2 19.2 9.7 40.8 15.2 63.6 15.2h339.5c35.5 0 68-13.2 93-35 39.5-25.9 65.7-70.6 65.7-121.4-0.3-51.3-27-96.4-67.3-122.2z" fill="#9CD0F7" /><path d="M562.5 326.9c1.4 1.7 4 1.9 5.7 0.5 1.7-1.4 1.9-4 0.5-5.7l-19.5-23.1c-1.4-1.7-4-1.9-5.7-0.5-1.7 1.4-1.9 4-0.5 5.7l19.5 23.1zM619.5 292.3c0.4 2.2 2.5 3.7 4.7 3.3 2.2-0.4 3.7-2.5 3.3-4.7l-5.4-29.7c-0.4-2.2-2.5-3.7-4.7-3.3-2.2 0.4-3.7 2.5-3.3 4.7l5.4 29.7zM688.6 296.1c2.1 0.8 4.4-0.3 5.2-2.4l10.2-28.4c0.8-2.1-0.3-4.4-2.4-5.2-2.1-0.8-4.4 0.3-5.2 2.4l-10.2 28.4c-0.8 2.1 0.3 4.4 2.4 5.2zM744.1 328.7c1.4 1.7 4 1.9 5.7 0.5l23.1-19.5c1.7-1.4 1.9-4 0.5-5.7-1.4-1.7-4-1.9-5.7-0.5L744.6 323c-1.7 1.4-1.9 4-0.5 5.7zM788.4 387.9l29.7-5.4c2.2-0.4 3.7-2.5 3.3-4.7-0.4-2.2-2.5-3.7-4.7-3.3l-29.7 5.4c-2.2 0.4-3.7 2.5-3.3 4.7 0.4 2.3 2.5 3.7 4.7 3.3zM792.9 449c-0.8 2.1 0.3 4.4 2.4 5.2l28.4 10.2c2.1 0.8 4.4-0.3 5.2-2.4 0.8-2.1-0.3-4.4-2.4-5.2l-28.4-10.2c-2.1-0.8-4.4 0.3-5.2 2.4z" fill="#F9D43A" /></svg>