<svg class="svg-icon" style="width: 1em;height: 1em;vertical-align: middle;fill: currentColor;overflow: hidden;" viewBox="0 0 1024 1024" version="1.1" xmlns="http://www.w3.org/2000/svg"><path d="M419.8 379.42l-1.15 1.98c1.49-0.52 2.94-1.18 4.36-1.98h-3.21zM484 450.51h14.75l-18.03-31.23-11.34 19.64A21.43 21.43 0 0 1 484 450.51zM467.09 442.9l-4.39 7.61h16.34c-2.64-4.05-6.95-6.92-11.95-7.61z" fill="#FFFFFF" /><path d="M511.48 695.05c-4.62-2.13-10.11-2.72-15.28-1.65-5.17 1.07-9.58 3.72-12.28 7.37l-63.75 86.27c-5.61 7.59-2.36 17.33 7.25 21.76 9.61 4.43 21.95 1.87 27.56-5.72l63.75-86.27c5.59-7.59 2.35-17.33-7.25-21.76z m113.46 0c-4.61-2.13-10.11-2.72-15.27-1.65-5.17 1.07-9.59 3.72-12.28 7.37l-63.74 86.27c-5.61 7.59-2.36 17.33 7.25 21.76 9.61 4.43 21.94 1.87 27.56-5.72l63.74-86.27c2.69-3.64 3.44-7.98 2.08-12.06-1.36-4.09-4.72-7.58-9.34-9.7z m103.82 57.39c-9.61-4.43-21.95-1.87-27.56 5.72l-63.74 86.27c-5.61 7.59-2.36 17.33 7.25 21.76 9.61 4.43 21.95 1.87 27.56-5.72l63.74-86.27c2.69-3.64 3.44-7.98 2.08-12.07-1.36-4.08-4.71-7.57-9.33-9.69z m100.75 3.01c-9.61-4.43-21.94-1.86-27.55 5.72l-63.75 86.27c-5.33 7.57-2.02 17.11 7.46 21.48 9.47 4.37 21.63 1.95 27.35-5.44l63.74-86.27c2.69-3.64 3.44-7.98 2.08-12.07-1.35-4.08-4.71-7.57-9.33-9.69z m-579.26-3.01c-4.61-2.13-10.11-2.72-15.28-1.65-5.17 1.07-9.59 3.72-12.28 7.37l-63.75 86.27c-3.64 4.92-3.67 11-0.08 15.93 3.59 4.94 10.25 7.99 17.46 8 7.17 0.01 13.8-3 17.42-7.89l63.74-86.27c5.62-7.59 2.38-17.33-7.23-21.76z m110.82 3.01c-4.61-2.12-10.11-2.72-15.27-1.64-5.17 1.07-9.59 3.72-12.28 7.37l-63.75 86.27c-3.79 4.92-3.92 11.06-0.35 16.08 3.57 5.01 10.3 8.11 17.58 8.11 7.29-0.01 14-3.13 17.56-8.15l63.75-86.27c2.7-3.64 3.45-7.98 2.09-12.07-1.36-4.09-4.71-7.58-9.33-9.7z m0 0" fill="#FFCC00" /><path d="M783.04 367.2c0.09-2.15 0.19-4.31 0.19-6.47 0-114.88-118.35-208.35-263.83-208.35-121.98 0-229.61 67.7-257.01 161.27C148.51 339.48 64.91 422.43 64.91 520.56c0 118.72 122.3 215.29 272.62 215.29h60.16c15.3 0 27.7-9.79 27.7-21.88 0-12.08-12.4-21.87-27.7-21.87h-60.15c-119.78 0-217.22-76.95-217.22-171.54 0-94.59 97.45-171.55 217.22-171.55 43.54 0 85.53 10.12 121.44 29.28 6.09 3.25 13.56 4.46 20.77 3.36 7.21-1.1 13.58-4.43 17.69-9.24 4.11-4.81 5.64-10.7 4.24-16.4-1.39-5.7-5.6-10.72-11.69-13.97-45.1-24.06-97.82-36.78-152.45-36.78-4.88 0-9.72 0.11-14.54 0.31 29.15-64.46 108.01-109.45 196.41-109.45 114.92 0 208.42 73.84 208.42 164.6 0.03 40.19-18.59 78.99-52.33 109.07-7.22 6.44-8.99 15.63-4.52 23.48 4.47 7.84 14.35 12.89 25.25 12.9 7.66 0 15.27-2.49 20.74-7.37 28.18-25.14 48.22-55.28 58.43-87.87 75.62 18.22 128.27 73.22 128.27 137.42 0 79.26-81.66 143.75-182.03 143.75h-28.93c-15.3 0-27.7 9.79-27.7 21.87 0 12.08 12.4 21.88 27.7 21.88h28.93c130.92 0 237.43-84.11 237.43-187.5 0.01-86.14-72.74-159.58-176.03-181.15z m0 0" fill="#1088FF" /></svg>