<svg class="svg-icon" style="width: 1.0302734375em;height: 1em;vertical-align: middle;fill: currentColor;overflow: hidden;" viewBox="0 0 1055 1024" version="1.1" xmlns="http://www.w3.org/2000/svg"><path d="M123.032199 422.345522C168.845463 324.114849 268.211473 255.850687 383.776031 255.850687c15.574911 0 30.750054 1.583076 45.669347 3.965686a353.857491 353.857491 0 0 1 27.455977-30.830008c-0.991421-2.718414-1.838927-5.50079-2.926292-8.155241 3.661863-6.380277 8.267175-12.93645 14.231694-16.374444 8.523026-4.925126 15.191135-4.861163 22.115094-4.445405a353.073948 353.073948 0 0 1 49.059369-31.405672c1.966852-8.810858 1.583076-18.037473-2.270674-24.705582-57.93419 33.468468-65.209944-3.885732-95.880045 13.815937-7.707502 4.445406-12.280833 10.569832-15.590902 16.406425-8.283166-9.850251-17.23794-19.092858-27.408004-27.024229-0.079953-7.451651 0.623636-15.590901 4.141583-21.651364 11.385356-19.732484 27.344042-11.385356 42.551167-37.737976 8.155241-14.11976 1.279253-40.808185-13.16032-49.139323-33.452477 57.93419-58.429901 29.230941-76.147561 59.901042-4.429415 7.691511-5.324892 15.255097-5.27692 21.971178-12.008992-4.461396-24.369778-8.13925-37.434154-9.978177-3.693844-6.348295-7.067875-13.64004-7.067875-20.500036 0-22.802692 17.989501-23.554254 17.989502-53.968504C323.811026 19.668522 304.51029 0 287.832023 0c0 66.888964-35.979003 54.528178-35.979003 89.947507 0 8.539017 2.814358 15.287079 6.028482 20.995747-12.904469 2.190722-25.089358 6.076454-36.842499 10.873654-6.444239-3.661863-13.096357-8.331138-16.582323-14.343629-11.385356-19.732484 3.805779-29.374857-11.401346-55.727478-8.155241-14.13575-34.699749-21.523439-49.139322-13.208291 33.452477 57.950181-3.901723 65.225935 13.799946 95.896035 4.461396 7.723493 10.601813 12.312814 16.454397 15.622883-9.898223 8.267175-19.188802 17.221949-27.152154 27.376024-7.435661 0.063963-15.542929-0.639627-21.571411-4.125593-19.748475-11.401346-11.385356-27.360033-37.753967-42.567158-14.11976-8.155241-40.808185-1.279253-49.139323 13.16032 57.93419 33.468468 29.246932 58.429901 59.917033 76.147561 7.611558 4.381443 15.063209 5.292911 21.747309 5.292911-4.493378 12.024982-8.203213 24.449731-10.026149 37.562079-6.316314 3.645872-13.464142 6.955941-20.260176 6.95594-22.802692 0-23.554254-17.989501-53.968505-17.989501C19.668522 251.85302 0 271.137766 0 287.816032c66.904955 0 54.528178 35.979003 89.947507 35.979003 8.427082 0 15.095191-2.734404 20.771878-5.884566 2.190722 12.92046 6.140416 25.121339 10.969598 36.890471-3.645872 6.396267-8.251185 12.952441-14.215704 16.390435-19.748475 11.401346-29.390848-3.805779-55.727478 11.401346-14.13575 8.155241-21.523439 34.699749-13.192301 49.155314 50.0348-28.895137 62.315633-5.053051 84.478699-9.402513z" fill="#FFCC66" /><path d="M966.252101 629.040896A286.360882 286.360882 0 0 0 991.421413 511.701374c0-158.96323-128.868793-287.832023-287.832023-287.832023-105.682324 0-197.804562 57.118666-247.855354 142.013122A190.960557 190.960557 0 0 0 383.776031 351.794695c-83.727137 0-154.725703 53.696663-180.934408 128.469026-3.645872-0.207879-7.259763-0.543683-10.953608-0.543683-105.986147 0-191.888015 85.901868-191.888015 191.888016 0 105.970156 85.901868 191.888015 191.888015 191.888015h703.58939a127.925344 127.925344 0 0 0 70.774696-234.455173z" fill="#CCCCCC" /><path d="M399.766699 675.445814c-15.303069-9.130671-34.859656-3.709835-43.686505 12.120926l-95.944008 158.835305c-8.826849 15.830761-3.5979 36.090938 11.705169 45.221609 15.287079 9.130671 34.859656 3.709835 43.670514-12.120926l95.944008-158.819314c8.842839-15.846752 3.5979-36.074947-11.689178-45.2376z m191.888015 0c-15.303069-9.130671-34.859656-3.709835-43.686505 12.120926l-159.906679 286.760649c-8.826849 15.830761-3.5979 36.090938 11.705169 45.221609 15.287079 9.130671 34.859656 3.709835 43.686504-12.120927l159.890689-286.744657c8.842839-15.846752 3.5979-36.074947-11.689178-45.2376z m191.888015 0c-15.303069-9.130671-34.859656-3.709835-43.686504 12.120926l-95.944008 158.835305c-8.826849 15.830761-3.5979 36.090938 11.705169 45.221609 15.287079 9.130671 34.859656 3.709835 43.670514-12.120926l95.959998-158.819314c8.826849-15.846752 3.58191-36.074947-11.705169-45.2376z" fill="#48A0DC" /></svg>