<svg class="svg-icon" style="width: 1em;height: 1em;vertical-align: middle;fill: currentColor;overflow: hidden;" viewBox="0 0 1024 1024" version="1.1" xmlns="http://www.w3.org/2000/svg"><path d="M419.8 379.42l-1.15 1.98c1.49-0.52 2.94-1.18 4.36-1.98h-3.21zM484 450.51h14.75l-18.03-31.23-11.34 19.64A21.43 21.43 0 0 1 484 450.51zM467.09 442.9l-4.39 7.61h16.34c-2.64-4.05-6.95-6.92-11.95-7.61z" fill="#FFFFFF" /><path d="M610.82 304.77c-19.55-100.27-106.65-175.9-211.11-175.9-104.47 0-191.56 75.61-211.12 175.91-71.27 19.54-123.68 85.64-123.68 164.2 0 93.9 74.93 170.04 167.39 170.04h334.84c92.47 0 167.4-76.14 167.4-170.04-0.04-78.57-52.46-144.67-123.72-164.21z m59.91 157.93c-0.11 62.25-50.64 112.63-112.9 112.54h-316.2c-62.37 0-112.93-50.38-112.93-112.52a112.758 112.758 0 0 1 112.93-112.56c0-87.02 70.79-157.54 158.09-157.54 87.29 0 158.12 70.53 158.12 157.55 62.37 0 112.93 50.38 112.93 112.53h-0.04z m0 0" fill="#1088FF" /><path d="M519.45 91.97c1.57-1 3.19-1.93 4.85-2.77 28.86-14.44 64.31-24.1 98.65-24.1 104.45 0 191.56 75.61 211.11 175.9 71.27 19.54 123.68 85.64 123.68 164.21 0 93.9-74.93 170.04-167.39 170.04H775.5c-17.06-0.73-30.52-14.77-30.52-31.85s13.45-31.12 30.52-31.86h5.48c29.9 0.05 58.6-11.78 79.78-32.89 21.18-21.1 33.1-49.76 33.15-79.67 0-62.15-50.58-112.53-112.93-112.53 0-87.02-70.79-157.54-158.08-157.54-25.59 0-54.67 13.59-77.09 21.14-6.33 2.2-13.2 2.22-19.54 0.06-12.19-3.64-21.04-14.19-22.52-26.84-1.49-12.62 4.68-24.93 15.7-31.3z m0 0" fill="#1088FF" /><path d="M495.36 713.47c-0.15-5.8 2.85-11.23 7.84-14.17 5-2.95 11.2-2.95 16.2 0 5 2.94 8 8.37 7.84 14.17v25.25l17.87-17.88c6.23-6.24 16.32-6.24 22.56-0.02 6.23 6.22 6.24 16.32 0.02 22.56l-17.86 17.86h25.25c8.64 0.23 15.52 7.3 15.52 15.94s-6.88 15.7-15.52 15.94H549.8l17.86 17.89c5.71 6.3 5.48 15.97-0.53 21.98-6.01 6.01-15.68 6.27-21.98 0.56l-17.89-17.86v25.29c0.16 5.8-2.85 11.22-7.84 14.17-5 2.94-11.2 2.94-16.2 0-4.99-2.95-8-8.37-7.84-14.17v-25.26l-17.85 17.85c-6.22 6.24-16.33 6.24-22.56 0.02-6.24-6.23-6.24-16.32-0.02-22.56l17.85-17.85h-25.25c-8.64-0.24-15.52-7.3-15.52-15.94s6.88-15.71 15.52-15.94h25.29l-17.86-17.89c-5.92-6.27-5.78-16.11 0.31-22.21 6.09-6.1 15.92-6.26 22.21-0.36l17.88 17.86-0.02-25.23z m334.9 0c-0.15-5.8 2.85-11.23 7.84-14.17 5-2.95 11.2-2.95 16.2 0 5 2.94 8 8.37 7.84 14.17v25.25l17.89-17.88c4.03-4.03 9.9-5.61 15.4-4.14 5.51 1.47 9.81 5.76 11.29 11.27 1.48 5.5-0.09 11.38-4.12 15.41l-17.92 17.88h25.25c8.64 0.23 15.52 7.3 15.52 15.94s-6.88 15.7-15.52 15.94h-25.25l17.86 17.89c5.71 6.3 5.48 15.96-0.53 21.98-6.01 6.02-15.68 6.27-21.98 0.56l-17.86-17.85v25.29c-0.23 8.64-7.3 15.52-15.94 15.52s-15.7-6.88-15.94-15.52v-25.29l-17.89 17.85c-4.03 4.03-9.9 5.61-15.41 4.14-5.5-1.47-9.81-5.76-11.29-11.27-1.48-5.5 0.09-11.38 4.12-15.41l17.88-17.85h-25.29c-5.8 0.15-11.22-2.85-14.17-7.84-2.94-5-2.94-11.2 0-16.2 2.95-5 8.37-8 14.17-7.84h25.29l-17.86-17.89c-5.81-6.2-5.74-15.85 0.15-21.96 5.89-6.12 15.54-6.54 21.95-0.97l18.25 18.25 0.07-25.26z m-669.27 0c-0.15-5.8 2.85-11.23 7.85-14.17a15.915 15.915 0 0 1 16.19 0c5 2.94 8 8.37 7.84 14.17v25.25l17.86-17.88c6.23-6.24 16.34-6.24 22.58-0.01 6.24 6.23 6.24 16.34 0.01 22.58l-17.86 17.86h25.25c8.64 0.23 15.52 7.3 15.52 15.94s-6.88 15.7-15.52 15.94h-25.3l17.9 17.89c5.91 6.28 5.76 16.11-0.33 22.21-6.09 6.09-15.93 6.24-22.21 0.34l-17.86-17.85v25.29c0.16 5.8-2.85 11.22-7.84 14.17-5 2.94-11.2 2.94-16.19 0-5-2.95-8-8.37-7.84-14.17v-25.29l-17.89 17.85c-6.23 6.24-16.33 6.24-22.56 0.02-6.24-6.23-6.24-16.32-0.02-22.56l17.89-17.85h-25.3c-5.8 0.15-11.22-2.85-14.17-7.84-2.94-5-2.94-11.2 0-16.2 2.95-5 8.37-8 14.17-7.84h25.28l-17.85-17.89c-6.23-6.22-6.24-16.32-0.01-22.55 6.22-6.23 16.32-6.24 22.55-0.01l17.85 17.86v-25.26z m166.98 100.92c0.23-8.64 7.3-15.52 15.94-15.52s15.71 6.88 15.94 15.52v25.28l17.86-17.85c6.26-5.92 16.1-5.79 22.21 0.3 6.11 6.08 6.27 15.92 0.37 22.21l-17.86 17.88h25.26c8.63 0.24 15.51 7.3 15.51 15.94s-6.88 15.71-15.51 15.94H382.4l17.86 17.86c5.92 6.27 5.78 16.1-0.3 22.21-6.09 6.11-15.92 6.27-22.21 0.37l-17.89-17.86v25.25c-0.23 8.64-7.3 15.52-15.94 15.52s-15.7-6.88-15.94-15.52v-25.28l-17.89 17.86c-6.27 5.92-16.1 5.78-22.21-0.3-6.11-6.09-6.27-15.92-0.37-22.21l17.92-17.89h-25.29c-8.63-0.23-15.52-7.3-15.52-15.94s6.88-15.7 15.52-15.94h25.29l-17.86-17.85c-5.92-6.27-5.79-16.1 0.3-22.21 6.08-6.11 15.92-6.27 22.21-0.37l17.89 17.85v-25.25z m334.79 0c0.23-8.64 7.3-15.52 15.94-15.52s15.71 6.88 15.94 15.52v25.28l17.89-17.86c6.26-5.92 16.1-5.79 22.21 0.3 6.1 6.08 6.27 15.92 0.37 22.21l-17.92 17.9h25.25c5.8-0.15 11.22 2.85 14.17 7.84 2.94 5 2.94 11.2 0 16.2-2.95 5-8.37 8-14.17 7.84h-25.25l17.85 17.86c5.92 6.27 5.79 16.1-0.3 22.21-6.08 6.11-15.92 6.27-22.2 0.37l-17.89-17.86v25.25c0.15 5.8-2.85 11.23-7.84 14.17-5 2.95-11.2 2.95-16.2 0-5-2.94-8-8.37-7.84-14.17v-25.28l-17.86 17.86c-6.26 5.92-16.1 5.78-22.21-0.3-6.1-6.09-6.27-15.92-0.37-22.21l17.86-17.89h-25.25c-5.8 0.16-11.22-2.85-14.17-7.84-2.94-5-2.94-11.2 0-16.2 2.95-4.99 8.37-8 14.17-7.84h25.29l-17.86-17.85c-5.92-6.27-5.78-16.1 0.3-22.21 6.09-6.11 15.93-6.27 22.21-0.37l17.89 17.85v-25.26z m0 0" fill="#FFCC00" /></svg>