<svg class="svg-icon" style="width: 1em; height: 1em;vertical-align: middle;fill: currentColor;overflow: hidden;" viewBox="0 0 1024 1024" version="1.1" xmlns="http://www.w3.org/2000/svg"><path d="M787.904212 437.576538c-7.225579-127.283087-125.296053-228.53151-270.259229-228.53151-114.886703 0-212.838456 63.652834-252.26302 153.38549-116.331819 9.641632-207.803131 106.938567-207.803132 225.776759 0 120.463947 94.022845 218.731819 212.657817 226.047717v0.13548h2.957972c3.703109 0.180639 7.361058 0.564498 11.154487 0.564498 3.748269 0 7.406218-0.406439 11.109327-0.564498H766.362955c3.703109 0.225799 7.361058 0.564498 11.109327 0.564498s7.451378-0.361279 11.154488-0.564498h6.57076v-0.316119a188.926307 188.926307 0 0 0 171.201059-188.068269c0.02258-100.841985-79.007189-183.010364-178.494377-188.429548z"  /></svg>