<svg class="svg-icon" style="width: 1em; height: 1em;vertical-align: middle;fill: currentColor;overflow: hidden;" viewBox="0 0 1024 1024" version="1.1" xmlns="http://www.w3.org/2000/svg"><path d="M827.9 346.3h-0.3C824.1 181 689.1 48.1 523 48.1S222 181 218.5 346.3h-0.4c-86.9 0-158 71.1-158 158.1s71.1 158.1 158.1 158.1H828c87 0 158.1-71.1 158.1-158.1-0.1-87-71.3-158.1-158.2-158.1z" fill="#FFFFFF" /><path d="M827.9 691.6H218.2c-49.8 0-96.8-19.5-132.2-54.9-35.5-35.5-55-82.5-55-132.3 0-49.8 19.5-96.8 54.9-132.3 28.9-28.9 65.5-47.3 105.1-53 7.8-77.5 42.1-149.5 98.4-204.7C352.1 52.9 435.1 19 523 19s171 33.9 233.7 95.4c56.3 55.2 90.6 127 98.4 204.7 39.5 5.7 76.1 24.1 105 53 35.4 35.4 54.9 82.4 54.9 132.2s-19.5 96.8-54.9 132.3c-35.5 35.4-82.3 55-132.2 55zM218.2 375.4c-71.1 0-129 57.8-129 129 0 71 57.8 129 129 129H828c71.1 0 129-57.8 129-129 0-71.1-57.8-129-129-129h-28.8l-0.6-28.5C795.4 198.2 671.8 77.2 523 77.2s-272.3 121-275.4 269.6l-0.6 28.5h-28.8z" fill="#1677B3" /><path d="M356.7 865.2l-46.4-16.7 1.4-141.9-106.5 131.1 46.5 16.7-1.4 141.9zM593.7 865.2l-46.4-16.7 1.4-141.9-106.5 131.1 46.5 16.7-1.4 141.9zM830.7 865.2l-46.4-16.7 1.4-141.9-106.5 131.1 46.5 16.7-1.4 141.9z" fill="#FED71A" /></svg>