<svg class="svg-icon" style="width: 1em; height: 1em;vertical-align: middle;fill: currentColor;overflow: hidden;" viewBox="0 0 1024 1024" version="1.1" xmlns="http://www.w3.org/2000/svg"><path d="M871.784359 381.405657c79.566944 22.485826 140.108201 95.134522 140.108201 183.350797a189.723774 189.723774 0 0 1-190.271072 190.271071H129.729815c-67.459504 0-121.080485-53.620981-121.080485-121.080485 0-57.081119 39.784486-103.783852 91.676412-117.622375-13.838523-27.675018-22.487853-57.081119-22.487853-89.94533a189.723774 189.723774 0 0 1 190.271072-190.271071c38.053403 0 72.648697 10.378385 103.783852 31.135156 36.324348-98.59466 131.458871-169.514301 242.162998-169.514301 143.568338 0 259.459631 115.891293 259.45963 259.45963-0.002027 8.64933-0.002027 15.567578-1.731082 24.216908" fill="#80D6FA" /><path d="M925.40534 936.649267c-25.945963 0-50.162871-10.378385-67.459504-27.675019-3.460137-3.460137-3.460137-8.64933 0-12.10744 3.460137-3.460137 8.64933-3.460137 12.107441 0 15.567578 15.567578 34.595293 22.485826 55.352063 22.485826 43.242596 0 77.837889-34.595293 77.83789-77.83789s-34.595293-77.837889-77.83789-77.837889h-86.487219c-5.189193 0-8.64933-3.460137-8.64933-8.64933s3.460137-8.64933 8.64933-8.64933h86.487219c51.891926 0 95.134522 43.242596 95.134523 95.134522 0.002027 51.891926-43.242596 95.136549-95.134523 95.13655z m-172.972411 0c-15.567578 0-31.135156-6.918248-43.242596-17.296633-3.460137-3.460137-3.460137-8.64933 0-12.107441 3.460137-3.460137 8.64933-3.460137 12.10744 0 8.64933 8.64933 19.027715 12.10744 31.135156 12.107441 24.216908 0 43.242596-19.027715 43.242596-43.242596 0-24.216908-19.027715-43.242596-43.242596-43.242597H320.000887c-5.189193 0-8.64933-3.460137-8.64933-8.64933 0-5.189193 3.460137-8.64933 8.64933-8.64933H752.432929c32.864211 0 60.541256 27.675018 60.541256 60.541257 0 32.864211-27.677045 60.539229-60.541256 60.539229z m-51.891926-172.972412H250.810301c-5.189193 0-8.64933-3.460137-8.64933-8.64933 0-5.189193 3.460137-8.64933 8.64933-8.64933H700.541003c51.891926 0 95.134522-43.242596 95.134522-95.134522S752.432929 556.109151 700.541003 556.109151s-95.134522 43.242596-95.134522 95.134522c0 5.189193-3.460137 8.64933-8.64933 8.64933s-8.64933-3.460137-8.649331-8.64933c0-62.270311 50.162871-112.433182 112.433183-112.433182s112.433182 50.162871 112.433182 112.433182-51.891926 112.433182-112.433182 112.433182z m-518.919262 0H129.729815c-70.919641 0-129.729815-58.810174-129.729815-129.729815s58.810174-129.729815 129.729815-129.729815c5.189193 0 8.64933 3.460137 8.64933 8.64933 0 5.189193-3.460137 8.64933-8.64933 8.64933-62.270311 0-112.433182 50.162871-112.433182 112.433182S67.459504 746.378195 129.729815 746.378195h51.891926c5.189193 0 8.64933 3.460137 8.64933 8.64933 0 5.189193-5.189193 8.64933-8.64933 8.64933z m778.378892-60.541256c-1.729055 0-3.460137 0-5.189192-1.729055-3.460137-3.460137-3.460137-8.64933 0-12.107441 31.135156-34.595293 50.162871-77.837889 50.162871-124.540622 0-58.810174-29.4061-114.162237-76.108834-148.757531-3.460137-3.460137-5.189193-8.64933-1.729055-12.10744 3.460137-3.460137 8.64933-5.189193 12.10744-1.729055 51.891926 38.053403 84.756137 98.59466 84.756137 162.594026 0 50.162871-19.027715 98.59466-53.620981 136.648063-6.918248 1.729055-8.64933 1.729055-10.378386 1.729055zM81.298027 469.621931c-3.460137 0-6.918248-3.460137-8.64933-6.918247-1.729055-12.10744-3.460137-24.216908-3.460138-36.324349 0-108.973045 89.94533-198.918374 198.918375-198.918374 55.352064 0 105.512907 22.485826 143.568338 62.270311 3.460137 3.460137 3.460137 8.64933 0 12.107441-3.460137 3.460137-8.64933 3.460137-12.107441 0-34.595293-36.324348-81.298027-57.081119-131.45887-57.081119-100.323715 0-181.621741 81.298027-181.621742 181.621741 0 10.378385 1.729055 22.485826 3.460138 32.864211-0.002027 5.189193-3.460137 8.64933-8.64933 10.378385z m781.837002-34.595293h-1.729055c-5.189193-1.729055-6.918248-5.189193-5.189193-10.378385 5.189193-22.485826 8.64933-44.973678 8.64933-67.459504 0-138.379145-112.433182-250.810301-250.8103-250.8103-83.027082 0-160.864971 41.513541-207.567705 110.7021-3.460137 3.460137-8.64933 5.189193-12.10744 1.729055-3.460137-3.460137-5.189193-8.64933-1.729056-12.107441 50.162871-74.377752 133.189953-119.35143 221.406228-119.35143 147.026448 0 268.108961 121.080485 268.10896 268.108961 0 24.216908-3.460137 48.431789-10.378385 70.919641-1.733109 6.918248-5.193247 8.647303-8.653384 8.647303z m-710.919388-34.593266h-1.729055c-5.189193-1.729055-6.918248-6.918248-5.189193-10.378385 8.64933-27.675018 25.945963-51.891926 50.162871-69.188559 3.460137-3.460137 8.64933-1.729055 12.107441 1.729055 3.460137 3.460137 1.729055 8.64933-1.729056 12.107441-20.75677 13.838523-36.324348 36.324348-43.242596 60.541256-3.460137 3.45811-6.920275 5.189193-10.380412 5.189192zM804.324855 365.838079c-5.189193 0-8.64933-3.460137-8.64933-8.64933 0-34.595293-10.378385-69.188559-29.4061-98.594659-3.460137-3.460137-1.729055-8.64933 1.729055-12.107441 3.460137-3.460137 8.64933-1.729055 12.10744 1.729055 20.75677 32.864211 32.864211 69.188559 32.864211 108.973045 0.004054 5.189193-3.456083 8.64933-8.645276 8.64933z" fill="#51565F" /></svg>